<svg version="1.1" id="Layer_1" xmlns="http://www.w3.org/2000/svg" xmlns:xlink="http://www.w3.org/1999/xlink" x="0px" y="0px"
	 width="100%" viewBox="0 0 250 100" enable-background="new 0 0 250 100" xml:space="preserve">
<path fill="#FDFEFD" opacity="1.000000" stroke="none" 
	d="
M159.000000,101.000000 
	C106.000000,101.000000 53.500008,101.000000 1.000007,101.000000 
	C1.000005,67.666672 1.000005,34.333344 1.000002,1.000011 
	C84.333321,1.000008 167.666641,1.000008 250.999969,1.000004 
	C250.999985,34.333321 250.999985,67.666641 251.000000,100.999985 
	C220.500000,101.000000 190.000000,101.000000 159.000000,101.000000 
M81.000618,47.991501 
	C81.000618,47.991501 81.034164,47.932800 80.858231,47.479218 
	C80.663788,47.193893 80.396034,47.024296 80.005943,47.002853 
	C80.005943,47.002853 80.026466,46.947788 79.799911,46.495159 
	C79.505249,46.349426 79.210579,46.203690 78.994141,46.007458 
	C78.994141,46.007458 78.939850,46.083099 78.834053,45.316967 
	C73.750534,42.329269 68.415337,42.484497 62.619484,44.050056 
	C62.352673,44.061581 62.179745,44.194874 61.186245,44.548588 
	C58.136246,44.516361 55.086246,44.484135 51.712807,44.227718 
	C51.469585,44.464241 51.226364,44.700760 50.819675,45.438095 
	C50.780174,45.609203 50.740669,45.780308 50.257416,46.537094 
	C50.165932,48.024529 50.074448,49.511963 49.273724,51.018410 
	C48.564636,51.000916 47.855545,50.983421 46.981693,50.330151 
	C46.973885,49.893917 46.966080,49.457680 47.471447,48.634888 
	C46.989704,47.427765 46.507961,46.220642 45.541096,44.673107 
	C45.380413,44.558189 45.219730,44.443268 44.776932,43.762745 
	C43.549511,44.234737 42.322090,44.706730 41.018353,45.608677 
	C41.018353,45.608677 40.807709,45.991180 40.395336,46.310406 
	C40.315548,46.639446 40.235760,46.968487 40.111198,47.668541 
	C40.111198,47.668541 39.900707,47.977333 39.212692,48.127029 
	C38.803062,49.393448 38.393433,50.659866 37.431290,52.381123 
	C37.091415,53.242943 36.751541,54.104759 35.876354,56.323971 
	C34.147358,52.304638 33.040627,49.324635 31.569674,46.536808 
	C31.065756,45.581753 29.632286,44.548687 28.655418,44.579018 
	C27.762123,44.606758 26.315094,45.910042 26.139078,46.844631 
	C24.948120,53.168266 24.029913,59.543266 22.938391,66.439362 
	C31.908726,67.063904 26.922216,58.706326 30.591888,56.094433 
	C32.292736,59.628082 33.965240,63.102848 36.203487,67.752998 
	C38.451935,63.041534 40.127419,59.530666 42.134041,55.325924 
	C43.261372,59.696541 44.113045,62.998432 45.612911,66.813568 
	C51.109943,66.899750 56.606976,66.985939 62.931011,67.066475 
	C64.851463,67.366913 66.809456,68.054123 68.683090,67.872253 
	C71.159409,67.631882 73.569649,66.710701 76.576035,65.720612 
	C78.411537,64.146149 80.247040,62.571693 82.785385,61.119038 
	C83.518433,62.745487 84.251480,64.371941 85.483620,66.353958 
	C85.652695,66.468582 85.821777,66.583206 86.260506,67.267334 
	C88.684456,68.669952 89.978249,68.004898 90.498215,64.866920 
	C90.671463,64.575890 90.844719,64.284866 91.570206,63.779697 
	C92.722160,63.844933 93.874107,63.910168 95.000305,64.000374 
	C95.000305,64.000374 95.019875,63.970848 95.239128,64.448166 
	C95.538399,64.613846 95.837669,64.779518 96.684578,65.044205 
	C97.122559,65.368637 97.560532,65.693069 98.057693,66.597740 
	C98.703232,66.734825 99.348770,66.871902 100.743950,67.042740 
	C101.491508,67.002136 102.239067,66.961525 103.445251,67.491798 
	C108.370964,70.006271 108.959755,64.262787 112.392395,63.265194 
	C112.587234,63.546822 112.782066,63.828445 113.209831,64.525833 
	C113.423302,64.782654 113.695175,64.935890 114.587105,65.107414 
	C115.057693,65.431404 115.528275,65.755394 116.072601,66.667503 
	C116.733086,66.721252 117.393570,66.775009 118.915962,66.841034 
	C120.923744,66.832817 122.931526,66.824600 125.229774,67.319885 
	C125.822380,66.924431 126.414986,66.528976 127.602188,65.805199 
	C129.384293,64.461739 131.166397,63.118282 133.136856,62.334190 
	C133.632416,62.608559 134.127960,62.882923 134.718872,63.900955 
	C135.125031,64.750381 135.531174,65.599808 136.293762,66.782707 
	C136.883362,66.675423 137.472977,66.568138 138.846085,66.138695 
	C139.381104,62.248520 139.916122,58.358345 140.570435,53.600857 
	C143.171494,56.615917 145.216476,59.320148 147.615631,61.661427 
	C149.523453,63.523212 151.864182,64.941368 154.231766,66.759995 
	C154.231766,66.759995 154.664261,66.777458 154.664261,66.777458 
	C154.664261,66.777458 154.999542,66.499710 155.500122,66.251610 
	C155.664093,66.163322 155.828064,66.075043 156.578842,66.244072 
	C157.381851,66.501938 158.184860,66.759796 159.734039,67.055107 
	C160.965912,66.414429 162.197784,65.773750 163.355560,64.256706 
	C163.410263,62.221157 163.464951,60.185604 164.075134,57.961430 
	C165.064072,57.296989 166.053024,56.632549 167.569351,56.357182 
	C168.331467,57.387848 169.093582,58.418510 170.224213,59.906555 
	C171.118683,60.682251 172.013138,61.457947 172.881485,62.817249 
	C172.923660,63.203438 172.965836,63.589626 173.156830,64.451317 
	C173.339325,64.752792 173.602097,64.943871 174.605728,65.447815 
	C175.835678,65.802826 177.065613,66.157837 178.803360,66.898430 
	C180.516876,66.771912 182.230408,66.645386 184.837509,66.366425 
	C187.562164,66.277763 190.286819,66.189102 193.651535,66.075546 
	C193.834137,65.720467 194.016724,65.365395 194.356903,64.333359 
	C194.271622,63.883450 194.186356,63.433540 193.678116,62.289505 
	C191.778107,62.242287 189.878098,62.195068 188.055573,61.996265 
	C188.055573,61.996265 188.095795,61.830841 188.062820,61.096745 
	C188.082596,59.877697 188.102356,58.658653 188.940506,57.248665 
	C190.622238,57.148121 192.303970,57.047577 194.289749,57.459919 
	C194.844223,57.642353 195.398712,57.824791 196.118744,58.737316 
	C197.347015,63.379150 201.703110,66.691551 206.932816,66.960403 
	C212.197403,67.231049 213.237198,66.076645 212.443970,60.636318 
	C208.897964,62.214752 205.015930,63.169964 202.746170,59.278057 
	C201.644394,57.388878 201.536606,53.989792 202.499115,52.015385 
	C204.683533,47.534374 208.899857,48.790615 212.577728,50.222988 
	C214.043808,45.047230 211.354797,43.522533 207.461426,44.087811 
	C204.303223,44.546352 201.298767,46.063892 197.483765,46.968063 
	C196.179321,46.580471 194.874893,46.192875 193.335617,45.665817 
	C193.335617,45.665817 193.186172,45.437218 193.593094,44.903820 
	C193.387421,44.413940 193.181763,43.924061 192.976105,43.434177 
	C192.645584,43.907070 192.315079,44.379963 191.180832,44.941628 
	C188.788177,44.674488 186.395508,44.407349 183.472900,44.100460 
	C183.293152,44.388828 183.113403,44.677197 183.001984,44.986904 
	C183.001984,44.986904 182.954742,44.933109 182.553345,45.006084 
	C182.553345,45.006084 182.160965,45.117966 181.432968,45.067612 
	C180.946732,45.052158 180.460495,45.036701 179.511520,44.859207 
	C179.511520,44.859207 179.024460,44.915302 178.257446,44.698017 
	C177.463562,44.719357 176.669678,44.740692 175.286209,44.887802 
	C175.155060,45.245327 175.023926,45.602856 174.806732,46.860741 
	C174.823883,49.850422 174.841034,52.840107 174.196075,56.030388 
	C173.120193,55.724010 172.044312,55.417633 170.512009,54.609249 
	C169.047302,52.689743 167.838730,50.473473 166.049866,48.929523 
	C164.034775,47.190311 161.496948,46.056778 158.860535,44.348232 
	C158.709122,44.628712 158.557724,44.909191 158.268021,45.207245 
	C158.268021,45.207245 158.151398,45.130859 157.439285,45.058674 
	C156.963211,45.040901 156.487137,45.023132 155.134933,44.737499 
	C151.845673,44.028736 150.641998,45.379269 150.909225,48.668701 
	C151.126389,51.341969 150.953323,54.046940 150.953323,56.737850 
	C146.848282,53.509750 143.980499,49.949028 140.904648,46.578136 
	C137.939545,43.328602 135.818161,43.851246 133.791214,47.969242 
	C132.875763,47.972847 131.960297,47.976452 130.993042,47.992725 
	C130.993042,47.992725 131.015869,47.944519 130.830475,47.520370 
	C130.649155,47.254356 130.404678,47.073956 129.616776,46.802853 
	C129.407166,46.542072 129.197540,46.281296 128.712204,45.534138 
	C128.375397,45.397236 128.038605,45.260334 127.310226,45.084064 
	C127.310226,45.084064 126.981270,44.868023 126.614906,44.429024 
	C126.248138,44.350254 125.881378,44.271481 124.877441,44.212296 
	C124.255180,44.081402 123.632919,43.950508 122.882957,43.181293 
	C122.484077,41.953518 122.204636,40.667957 121.647621,39.516693 
	C121.220222,38.633331 120.442780,37.919331 119.912292,37.001049 
	C119.912292,37.001049 119.860054,37.150154 119.942192,36.400829 
	C119.232811,35.648415 118.523438,34.896000 117.898453,34.060688 
	C117.898453,34.060688 117.880867,34.177666 117.764526,33.658573 
	C117.487701,33.453480 117.210884,33.248386 116.998428,33.004189 
	C116.998428,33.004189 116.954681,33.065521 116.793541,32.589592 
	C116.528122,32.396942 116.262703,32.204296 115.998779,32.001221 
	C115.998779,32.001221 115.988503,32.002201 115.806931,31.552214 
	C115.617477,31.269520 115.357491,31.087639 114.991997,31.007975 
	C114.991997,31.007975 114.993385,30.973017 114.795143,30.529667 
	C114.595512,30.252842 114.328339,30.081022 113.999084,30.000839 
	C113.999084,30.000839 113.985809,30.006922 113.781059,29.548058 
	C113.499443,29.380438 113.217834,29.212818 112.996407,29.001196 
	C112.996407,29.001196 112.956848,29.064363 112.747009,28.577955 
	C112.440475,28.422550 112.133949,28.267145 111.859245,28.142550 
	C111.859245,28.142550 111.815010,28.159678 111.830032,27.440870 
	C106.895988,20.724068 87.499695,18.721117 78.915390,25.481874 
	C74.096413,29.277166 68.758163,32.716621 67.846474,40.106785 
	C75.695366,31.179525 84.703453,25.046997 97.494362,26.063932 
	C97.657501,26.110342 97.820633,26.156752 98.181625,26.911388 
	C100.087563,27.287670 101.993500,27.663952 103.968277,28.012287 
	C103.968277,28.012287 103.985741,28.084497 104.228844,28.503590 
	C104.446602,28.763319 104.722870,28.919689 105.546860,29.070080 
	C105.546860,29.070080 106.015839,29.240009 106.252846,29.597036 
	C106.457832,29.814152 106.708504,29.941010 107.004425,29.995626 
	C107.004425,29.995626 107.022362,29.993258 107.074371,30.685486 
	C109.110619,32.402515 111.146858,34.119545 113.130913,35.973934 
	C113.130913,35.973934 113.133820,35.827023 113.228828,36.339462 
	C113.490524,36.553963 113.752213,36.768463 114.000305,36.999542 
	C114.000305,36.999542 114.017570,36.987812 114.123558,37.398151 
	C114.252098,37.665413 114.453354,37.855843 115.009911,38.325455 
	C115.009911,38.325455 115.099403,38.771099 115.211006,39.303867 
	C115.483261,39.530380 115.755516,39.756889 115.998589,39.999519 
	C115.998589,39.999519 116.017426,39.971592 116.227623,40.445515 
	C116.523979,40.606377 116.820328,40.767239 117.030029,40.954769 
	C117.030029,40.954769 117.066940,40.871956 117.206863,41.440895 
	C117.201920,42.388813 117.196976,43.336731 117.093124,44.216400 
	C117.093124,44.216400 117.212631,44.203808 116.726608,44.202560 
	C116.397179,44.304367 116.160439,44.511871 115.643318,45.041443 
	C115.643318,45.041443 115.214584,45.088173 114.698006,45.181400 
	C114.460350,45.427910 114.222687,45.674416 113.680222,46.428741 
	C113.077103,46.930599 112.473991,47.432457 111.278519,47.611870 
	C109.736252,46.475998 108.193993,45.340130 105.833611,44.157860 
	C99.172623,43.164597 94.661629,45.990814 91.399506,51.424225 
	C90.760231,49.564373 90.120964,47.704521 89.503616,45.228977 
	C87.986115,45.159241 86.468620,45.089504 84.421387,45.494072 
	C84.286415,46.675472 84.151451,47.856873 83.317612,49.028549 
	C82.851952,49.039501 82.386299,49.050453 81.996918,49.004910 
	C81.996918,49.004910 81.939369,49.080425 81.835152,48.585701 
	C81.578148,48.379910 81.321144,48.174114 81.000618,47.991501 
M167.255417,72.102104 
	C166.504227,73.400688 165.753021,74.699280 164.947586,75.347588 
	C164.425949,74.408791 163.904297,73.469994 163.382660,72.531197 
	C162.941437,72.922569 162.500229,73.313942 162.059021,73.705315 
	C163.038727,74.470886 164.018448,75.236465 165.069229,76.696609 
	C167.443436,80.502754 168.838593,78.998138 169.955002,75.059746 
	C169.280563,74.032341 168.606125,73.004944 167.255417,72.102104 
M226.315277,49.075409 
	C227.373108,48.361080 228.584030,47.779224 229.390518,46.847370 
	C229.616653,46.586063 228.684937,44.605042 228.229752,44.583820 
	C224.110443,44.391769 219.975708,44.382767 215.855621,44.558022 
	C215.387039,44.577953 214.615814,46.077641 214.652679,46.859718 
	C214.686493,47.577076 215.492676,48.478321 216.197250,48.884129 
	C216.959091,49.322922 217.997498,49.281593 219.299530,49.520054 
	C219.299530,55.205051 219.299530,60.614758 219.299530,65.919609 
	C224.671921,66.971771 224.680664,66.942589 224.854813,62.600674 
	C225.032196,58.177834 225.283371,53.757954 226.315277,49.075409 
M125.948219,78.531090 
	C126.429451,76.648682 126.910675,74.766273 127.338371,73.093292 
	C124.923752,73.093292 123.093491,73.093292 121.322495,73.093292 
	C121.322495,74.691475 121.322495,76.577805 121.322495,77.053215 
	C123.178825,77.511406 124.300713,77.788322 125.948219,78.531090 
z"/>
<path fill="#1A99CF" opacity="1.000000" stroke="none" 
	d="
M40.807709,45.991180 
	C40.807709,45.991180 41.018353,45.608677 41.451233,45.289871 
	C42.942425,44.756824 44.000740,44.542587 45.059052,44.328350 
	C45.219730,44.443268 45.380413,44.558189 45.779354,45.197029 
	C46.331165,46.821114 46.644718,47.921280 46.958275,49.021446 
	C46.966080,49.457680 46.973885,49.893917 47.007805,51.043213 
	C47.386375,53.838493 47.738834,55.920712 48.042183,58.347076 
	C48.258266,59.555637 48.523464,60.420055 48.797562,61.654846 
	C48.917152,63.006401 49.027843,63.987583 48.917046,65.281174 
	C47.451939,65.829170 46.208328,66.064751 44.964714,66.300323 
	C44.113045,62.998432 43.261372,59.696541 42.134041,55.325924 
	C40.127419,59.530666 38.451935,63.041534 36.203487,67.752998 
	C33.965240,63.102848 32.292736,59.628082 30.591888,56.094433 
	C26.922216,58.706326 31.908726,67.063904 22.938391,66.439362 
	C24.029913,59.543266 24.948120,53.168266 26.139078,46.844631 
	C26.315094,45.910042 27.762123,44.606758 28.655418,44.579018 
	C29.632286,44.548687 31.065756,45.581753 31.569674,46.536808 
	C33.040627,49.324635 34.147358,52.304638 35.876354,56.323971 
	C36.751541,54.104759 37.091415,53.242943 38.021317,52.045753 
	C39.041130,50.466030 39.470921,49.221684 39.900707,47.977333 
	C39.900707,47.977333 40.111198,47.668541 40.353745,47.334000 
	C40.666767,46.663364 40.737236,46.327271 40.807709,45.991180 
z"/>
<path fill="#70B959" opacity="1.000000" stroke="none" 
	d="
M115.214584,45.088173 
	C115.214584,45.088173 115.643318,45.041443 116.078758,44.941044 
	C116.889206,44.784332 117.122017,44.572056 117.212631,44.203808 
	C117.212631,44.203808 117.093124,44.216400 117.555664,44.244301 
	C119.682358,44.121342 121.346504,43.970478 123.010658,43.819618 
	C123.632919,43.950508 124.255180,44.081402 125.382034,44.421944 
	C126.251503,44.710403 126.616386,44.789211 126.981270,44.868023 
	C126.981270,44.868023 127.310226,45.084064 127.651840,45.338310 
	C128.324951,45.735207 128.656448,45.877861 128.987930,46.020515 
	C129.197540,46.281296 129.407166,46.542072 129.927582,47.118366 
	C130.422241,47.718735 130.681396,47.888947 131.015869,47.944519 
	C131.015869,47.944519 130.993042,47.992725 131.103470,48.313614 
	C131.858978,50.067673 132.504059,51.500851 133.103424,53.380440 
	C133.021317,56.476173 132.984909,59.125500 132.948502,61.774822 
	C131.166397,63.118282 129.384293,64.461739 127.016922,65.919968 
	C125.934204,66.295280 125.436752,66.555832 124.939308,66.816376 
	C122.931526,66.824600 120.923744,66.832817 118.294067,66.618469 
	C117.114403,66.290398 116.556625,66.184898 115.998856,66.079391 
	C115.528275,65.755394 115.057693,65.431404 114.203415,64.825623 
	C113.607491,64.265747 113.326553,64.121162 112.976906,64.110069 
	C112.782066,63.828445 112.587234,63.546822 112.046478,62.811073 
	C108.337204,57.509022 109.185616,52.710823 111.870880,47.934319 
	C112.473991,47.432457 113.077103,46.930599 114.094208,46.135246 
	C114.743652,45.590561 114.979118,45.339367 115.214584,45.088173 
M117.630478,49.893906 
	C114.093445,52.874241 113.701202,56.456055 116.496986,59.902699 
	C118.935448,62.908833 122.424759,62.919456 125.432999,60.753418 
	C128.579605,58.487736 128.857834,55.156246 127.012680,51.906975 
	C125.010559,48.381275 121.736771,48.413818 117.630478,49.893906 
z"/>
<path fill="#6CB855" opacity="1.000000" stroke="none" 
	d="
M135.937332,66.449234 
	C135.531174,65.599808 135.125031,64.750381 134.799225,63.073406 
	C134.802612,59.126644 134.725616,56.007435 134.707123,52.477104 
	C134.668304,50.692284 134.570999,49.318588 134.473679,47.944889 
	C135.818161,43.851246 137.939545,43.328602 140.904648,46.578136 
	C143.980499,49.949028 146.848282,53.509750 150.953323,56.737850 
	C150.953323,54.046940 151.126389,51.341969 150.909225,48.668701 
	C150.641998,45.379269 151.845673,44.028736 155.554413,45.338913 
	C155.979935,52.622478 155.985977,59.304623 155.992035,65.986771 
	C155.828064,66.075043 155.664093,66.163322 154.997650,66.295456 
	C154.334366,66.411705 154.173538,66.484093 154.012726,66.556480 
	C151.864182,64.941368 149.523453,63.523212 147.615631,61.661427 
	C145.216476,59.320148 143.171494,56.615917 140.570435,53.600857 
	C139.916122,58.358345 139.381104,62.248520 138.108398,66.169586 
	C136.892929,66.283401 136.415131,66.366318 135.937332,66.449234 
z"/>
<path fill="#1697CD" opacity="1.000000" stroke="none" 
	d="
M82.082550,60.997238 
	C80.247040,62.571693 78.411537,64.146149 75.829041,65.869080 
	C71.839180,66.017548 68.596306,66.017548 65.336060,66.017548 
	C65.336060,58.669426 65.336060,51.839844 65.336060,44.187012 
	C70.220123,44.867752 74.579987,45.475426 78.939850,46.083099 
	C78.939850,46.083099 78.994141,46.007458 79.054741,46.270504 
	C79.419052,46.671631 79.722755,46.809711 80.026466,46.947788 
	C80.026466,46.947788 80.005943,47.002853 80.109375,47.220421 
	C80.406609,47.735672 80.680397,47.900612 81.034164,47.932800 
	C81.034164,47.932800 81.000618,47.991501 81.081665,48.229034 
	C81.421600,48.671185 81.680489,48.875805 81.939369,49.080425 
	C81.939369,49.080425 81.996918,49.004910 81.958496,49.359077 
	C82.319725,50.463211 82.719360,51.213177 83.101868,52.395813 
	C82.750679,55.551403 82.416611,58.274323 82.082550,60.997238 
M73.870117,49.149422 
	C72.649178,49.149422 71.428238,49.149422 70.294983,49.149422 
	C70.294983,53.721931 70.294983,57.744492 70.294983,61.767052 
	C70.712517,62.136650 71.130058,62.506245 71.547592,62.875843 
	C73.641312,61.239231 76.573853,60.015343 77.630249,57.868332 
	C79.177475,54.723797 78.155365,51.374416 73.870117,49.149422 
z"/>
<path fill="#72BA5C" opacity="1.000000" stroke="none" 
	d="
M198.226120,47.111748 
	C201.298767,46.063892 204.303223,44.546352 207.461426,44.087811 
	C211.354797,43.522533 214.043808,45.047230 212.577728,50.222988 
	C208.899857,48.790615 204.683533,47.534374 202.499115,52.015385 
	C201.536606,53.989792 201.644394,57.388878 202.746170,59.278057 
	C205.015930,63.169964 208.897964,62.214752 212.443970,60.636318 
	C213.237198,66.076645 212.197403,67.231049 206.932816,66.960403 
	C201.703110,66.691551 197.347015,63.379150 196.081146,57.956871 
	C196.017029,55.784313 195.990509,54.392204 196.118073,52.684799 
	C196.923492,50.616920 197.574799,48.864334 198.226120,47.111748 
z"/>
<path fill="#E8FBF2" opacity="1.000000" stroke="none" 
	d="
M111.574699,47.773094 
	C109.185616,52.710823 108.337204,57.509022 111.811554,62.698311 
	C108.959755,64.262787 108.370964,70.006271 103.407623,66.889954 
	C104.894333,65.457726 106.418671,64.627357 107.943001,63.796982 
	C106.558655,63.513718 105.183273,63.053230 103.788177,62.982689 
	C100.501068,62.816483 96.995209,59.350712 97.030083,55.794064 
	C97.068703,51.854549 98.729431,49.122475 103.146599,49.033260 
	C104.693680,49.002010 106.241928,49.028271 108.554321,49.028271 
	C107.690170,46.837215 107.170952,45.520737 106.651726,44.204258 
	C108.193993,45.340130 109.736252,46.475998 111.574699,47.773094 
z"/>
<path fill="#7CC066" opacity="1.000000" stroke="none" 
	d="
M225.908752,49.206093 
	C225.283371,53.757954 225.032196,58.177834 224.854813,62.600674 
	C224.680664,66.942589 224.671921,66.971771 219.299530,65.919609 
	C219.299530,60.614758 219.299530,55.205051 219.299530,49.520054 
	C217.997498,49.281593 216.959091,49.322922 216.197250,48.884129 
	C215.492676,48.478321 214.686493,47.577076 214.652679,46.859718 
	C214.615814,46.077641 215.387039,44.577953 215.855621,44.558022 
	C219.975708,44.382767 224.110443,44.391769 228.229752,44.583820 
	C228.684937,44.605042 229.616653,46.586063 229.390518,46.847370 
	C228.584030,47.779224 227.373108,48.361080 225.908752,49.206093 
z"/>
<path fill="#D2F6FD" opacity="1.000000" stroke="none" 
	d="
M78.886948,45.700035 
	C74.579987,45.475426 70.220123,44.867752 65.336060,44.187012 
	C65.336060,51.839844 65.336060,58.669426 65.336060,66.017548 
	C68.596306,66.017548 71.839180,66.017548 75.545166,66.049850 
	C73.569649,66.710701 71.159409,67.631882 68.683090,67.872253 
	C66.809456,68.054123 64.851463,67.366913 62.513306,66.830490 
	C62.095596,66.594505 62.061646,66.119316 62.074696,65.695702 
	C61.123783,64.519745 60.167309,63.134800 59.194576,63.123283 
	C54.697632,63.070057 54.544376,60.736027 55.136528,58.519684 
	C58.295933,57.046047 60.525047,56.006325 62.754162,54.966606 
	C60.624390,53.998638 58.494617,53.030674 55.973190,51.884705 
	C55.385040,49.631611 56.249599,48.150295 59.391300,47.886944 
	C60.619453,47.783993 61.765450,46.700977 62.976532,45.728424 
	C62.991966,44.943810 62.979733,44.495113 62.967499,44.046413 
	C68.415337,42.484497 73.750534,42.329269 78.886948,45.700035 
z"/>
<path fill="#6DB855" opacity="1.000000" stroke="none" 
	d="
M106.242668,44.181061 
	C107.170952,45.520737 107.690170,46.837215 108.554321,49.028271 
	C106.241928,49.028271 104.693680,49.002010 103.146599,49.033260 
	C98.729431,49.122475 97.068703,51.854549 97.030083,55.794064 
	C96.995209,59.350712 100.501068,62.816483 103.788177,62.982689 
	C105.183273,63.053230 106.558655,63.513718 107.943001,63.796982 
	C106.418671,64.627357 104.894333,65.457726 103.178314,66.604507 
	C102.239067,66.961525 101.491508,67.002136 100.215286,66.767128 
	C99.123917,66.333511 98.561218,66.175507 97.998512,66.017502 
	C97.560532,65.693069 97.122559,65.368637 96.300858,64.756416 
	C95.618050,64.302704 95.318962,64.136772 95.019875,63.970848 
	C95.019875,63.970848 95.000305,64.000374 94.890717,63.675568 
	C93.798698,61.582764 92.816261,59.814770 91.866440,57.614532 
	C91.910248,55.449116 91.921432,53.715935 91.932617,51.982758 
	C94.661629,45.990814 99.172623,43.164597 106.242668,44.181061 
z"/>
<path fill="#E8FBF2" opacity="1.000000" stroke="none" 
	d="
M96.990173,25.995440 
	C84.703453,25.046997 75.695366,31.179525 67.846474,40.106785 
	C68.758163,32.716621 74.096413,29.277166 78.915390,25.481874 
	C87.499695,18.721117 106.895988,20.724068 111.459145,27.724018 
	C109.276352,27.281111 107.466942,26.548742 105.652061,25.830210 
	C100.797874,23.908386 95.999214,21.595753 90.412338,24.119642 
	C92.604950,24.744909 94.797562,25.370174 96.990173,25.995440 
z"/>
<path fill="#1096CF" opacity="1.000000" stroke="none" 
	d="
M62.948864,46.064339 
	C61.765450,46.700977 60.619453,47.783993 59.391300,47.886944 
	C56.249599,48.150295 55.385040,49.631611 55.973190,51.884705 
	C58.494617,53.030674 60.624390,53.998638 62.754162,54.966606 
	C60.525047,56.006325 58.295933,57.046047 55.136528,58.519684 
	C54.544376,60.736027 54.697632,63.070057 59.194576,63.123283 
	C60.167309,63.134800 61.123783,64.519745 61.615318,65.666077 
	C57.686481,65.689430 54.230076,65.318787 50.821648,64.489647 
	C50.837566,59.708111 50.805504,55.385078 50.868530,50.641541 
	C50.876137,48.797829 50.788651,47.374619 50.701168,45.951412 
	C50.740669,45.780308 50.780174,45.609203 51.187828,45.116783 
	C51.716068,44.680946 51.876156,44.566429 52.036247,44.451908 
	C55.086246,44.484135 58.136246,44.516361 61.650291,44.826302 
	C62.392513,45.424122 62.670689,45.744232 62.948864,46.064339 
z"/>
<path fill="#66B74E" opacity="1.000000" stroke="none" 
	d="
M193.985703,56.947037 
	C192.303970,57.047577 190.622238,57.148121 188.195587,57.343788 
	C185.118195,59.277100 185.476532,60.720028 188.095795,61.830841 
	C188.095795,61.830841 188.055573,61.996265 188.306366,62.328026 
	C190.405136,62.767735 192.253113,62.875683 194.101089,62.983631 
	C194.186356,63.433540 194.271622,63.883450 194.010193,64.767471 
	C193.446152,65.501205 193.228806,65.800819 193.011475,66.100433 
	C190.286819,66.189102 187.562164,66.277763 184.183868,66.258774 
	C183.369934,66.060112 183.209641,65.969086 183.040375,65.419510 
	C183.005859,58.285019 182.980301,51.609066 182.954742,44.933109 
	C182.954742,44.933109 183.001984,44.986904 183.191010,44.905296 
	C183.658081,44.660046 183.865692,44.432220 184.002853,44.140209 
	C186.395508,44.407349 188.788177,44.674488 191.788910,44.985031 
	C192.656876,45.170864 192.919937,45.307125 193.186172,45.437218 
	C193.186172,45.437218 193.335617,45.665817 193.598999,46.050697 
	C193.122849,47.276363 192.518204,48.327023 191.612442,48.909256 
	C190.217056,49.806236 188.615250,50.382080 187.100998,51.094154 
	C188.839035,51.748039 190.566971,52.431324 192.322113,53.035484 
	C192.771118,53.190037 193.306244,53.094376 193.860352,53.493374 
	C193.941162,54.897732 193.963440,55.922386 193.985703,56.947037 
z"/>
<path fill="#66B84D" opacity="1.000000" stroke="none" 
	d="
M169.855713,59.449173 
	C169.093582,58.418510 168.331467,57.387848 167.173462,55.816978 
	C165.823776,54.923817 164.869965,54.570866 163.916168,54.217915 
	C163.783997,55.528629 163.651825,56.839344 163.519653,58.150055 
	C163.464951,60.185604 163.410263,62.221157 163.002441,64.728790 
	C161.422180,65.497261 160.195038,65.793663 158.854492,65.684692 
	C158.544510,58.563160 158.347946,51.847012 158.151398,45.130859 
	C158.151398,45.130859 158.268021,45.207245 158.564972,45.114712 
	C158.861923,45.022179 159.186478,44.659798 159.186478,44.659798 
	C161.496948,46.056778 164.034775,47.190311 166.049866,48.929523 
	C167.838730,50.473473 169.047302,52.689743 170.721146,55.107899 
	C170.930283,55.606548 170.983063,56.101383 170.831436,56.422451 
	C170.405106,57.645401 170.130417,58.547287 169.855713,59.449173 
z"/>
<path fill="#66B84D" opacity="1.000000" stroke="none" 
	d="
M174.858200,55.829788 
	C174.841034,52.840107 174.823883,49.850422 175.093903,46.285500 
	C175.545990,45.394184 175.710892,45.078110 175.875793,44.762032 
	C176.669678,44.740692 177.463562,44.719357 178.672058,45.034187 
	C179.192566,45.667786 179.374008,45.908195 179.672485,46.551254 
	C179.686035,52.942921 179.658081,58.874912 179.380905,64.892036 
	C178.766434,65.337906 178.401169,65.698647 178.045319,66.204529 
	C178.054749,66.349678 178.295563,66.512840 178.295563,66.512840 
	C177.065613,66.157837 175.835678,65.802826 174.216339,64.989563 
	C173.553970,64.346146 173.280991,64.160980 173.008011,63.975815 
	C172.965836,63.589626 172.923660,63.203438 172.938782,62.182251 
	C173.330185,60.456158 173.664291,59.365059 174.271774,58.049744 
	C174.649506,57.160282 174.753845,56.495033 174.858200,55.829788 
z"/>
<path fill="#1E95C7" opacity="1.000000" stroke="none" 
	d="
M97.242264,26.029686 
	C94.797562,25.370174 92.604950,24.744909 90.412338,24.119642 
	C95.999214,21.595753 100.797874,23.908386 105.652061,25.830210 
	C107.466942,26.548742 109.276352,27.281111 111.451630,28.083424 
	C111.815010,28.159678 111.859245,28.142550 111.940262,28.375681 
	C112.333138,28.760664 112.644997,28.912514 112.956848,29.064365 
	C112.956848,29.064363 112.996407,29.001196 113.052338,29.265789 
	C113.400780,29.689228 113.693291,29.848076 113.985809,30.006924 
	C113.985809,30.006922 113.999084,30.000839 114.071152,30.247692 
	C114.426605,30.654036 114.709999,30.813526 114.993385,30.973017 
	C114.993385,30.973017 114.991997,31.007975 115.075684,31.249388 
	C115.435745,31.661266 115.712128,31.831734 115.988503,32.002201 
	C115.988503,32.002201 115.998779,32.001221 116.061554,32.256023 
	C116.401115,32.695724 116.677895,32.880623 116.954681,33.065521 
	C116.954681,33.065521 116.998428,33.004189 117.027122,33.283295 
	C117.330833,33.767487 117.605850,33.972576 117.880867,34.177666 
	C117.880867,34.177666 117.898453,34.060688 117.920952,34.407871 
	C118.582321,35.553421 119.221184,36.351788 119.860054,37.150154 
	C119.860054,37.150154 119.912292,37.001049 119.885742,37.416138 
	C118.928436,38.844803 117.997688,39.858379 117.066940,40.871956 
	C117.066940,40.871956 117.030029,40.954769 116.968414,40.705856 
	C116.610336,40.295162 116.313881,40.133377 116.017426,39.971588 
	C116.017426,39.971592 115.998589,39.999519 115.950546,39.727726 
	C115.634811,39.227654 115.367104,38.999374 115.099403,38.771099 
	C115.099403,38.771099 115.009911,38.325455 114.862122,37.921585 
	C114.575500,37.218281 114.343254,37.041649 114.017570,36.987812 
	C114.017570,36.987812 114.000305,36.999542 113.965576,36.729553 
	C113.665169,36.248718 113.399498,36.037872 113.133820,35.827023 
	C113.133820,35.827023 113.130913,35.973934 113.082214,35.577286 
	C111.029800,33.451511 109.026085,31.722383 107.022362,29.993256 
	C107.022362,29.993258 107.004425,29.995626 106.928864,29.758484 
	C106.655128,29.186581 106.375977,29.092802 106.015839,29.240009 
	C106.015839,29.240009 105.546860,29.070080 105.210526,28.781616 
	C104.578033,28.356936 104.281891,28.220716 103.985741,28.084499 
	C103.985741,28.084497 103.968277,28.012287 103.728577,27.739664 
	C101.653839,27.045748 99.818802,26.624454 97.983772,26.203161 
	C97.820633,26.156752 97.657501,26.110342 97.242264,26.029686 
z"/>
<path fill="#EFFBE9" opacity="1.000000" stroke="none" 
	d="
M193.801804,53.113667 
	C193.306244,53.094376 192.771118,53.190037 192.322113,53.035484 
	C190.566971,52.431324 188.839035,51.748039 187.100998,51.094154 
	C188.615250,50.382080 190.217056,49.806236 191.612442,48.909256 
	C192.518204,48.327023 193.122849,47.276363 193.716431,46.120430 
	C194.874893,46.192875 196.179321,46.580471 197.854950,47.039902 
	C197.574799,48.864334 196.923492,50.616920 195.757233,52.693581 
	C194.762115,53.049660 194.281967,53.081665 193.801804,53.113667 
z"/>
<path fill="#DCF7D0" opacity="1.000000" stroke="none" 
	d="
M179.630112,64.806900 
	C179.658081,58.874912 179.686035,52.942921 179.786560,46.292461 
	C179.897522,45.389748 179.935883,45.205498 179.974258,45.021248 
	C180.460495,45.036701 180.946732,45.052158 181.767670,45.551514 
	C182.418030,52.649624 182.733688,59.263840 183.049332,65.878052 
	C183.209641,65.969086 183.369934,66.060112 183.737061,66.334999 
	C182.230408,66.645386 180.516876,66.771912 178.549469,66.705635 
	C178.295563,66.512840 178.054749,66.349678 178.354965,66.220024 
	C178.980148,65.662552 179.305130,65.234726 179.630112,64.806900 
z"/>
<path fill="#DFF9D3" opacity="1.000000" stroke="none" 
	d="
M157.795334,45.094765 
	C158.347946,51.847012 158.544510,58.563160 158.858582,65.916534 
	C158.976105,66.553764 158.987869,67.017662 158.987869,67.017662 
	C158.184860,66.759796 157.381851,66.501938 156.285431,66.115417 
	C155.985977,59.304623 155.979935,52.622478 155.992462,45.472847 
	C156.487137,45.023132 156.963211,45.040901 157.795334,45.094765 
z"/>
<path fill="#CFFEF9" opacity="1.000000" stroke="none" 
	d="
M91.666061,51.703491 
	C91.921432,53.715935 91.910248,55.449116 91.617981,57.896515 
	C91.230598,60.405102 91.124283,62.199467 91.017967,63.993835 
	C90.844719,64.284866 90.671463,64.575890 90.060448,64.878967 
	C89.413330,64.605843 89.203972,64.320671 88.993805,63.564411 
	C88.968727,57.400452 88.944473,51.707569 89.057968,45.963531 
	C89.195717,45.912376 89.481689,45.844669 89.481689,45.844669 
	C90.120964,47.704521 90.760231,49.564373 91.666061,51.703491 
z"/>
<path fill="#D3F4FA" opacity="1.000000" stroke="none" 
	d="
M50.773441,51.062046 
	C50.805504,55.385078 50.837566,59.708111 50.549156,64.496162 
	C49.865299,64.963707 49.501919,64.966232 49.138535,64.968765 
	C49.027843,63.987583 48.917152,63.006401 48.869637,61.300072 
	C48.652306,59.717590 48.371796,58.860260 48.091293,58.002926 
	C47.738834,55.920712 47.386375,53.838493 47.090187,51.361103 
	C47.855545,50.983421 48.564636,51.000916 49.825874,51.026382 
	C50.378029,51.034359 50.773441,51.062046 50.773441,51.062046 
z"/>
<path fill="#2A97C4" opacity="1.000000" stroke="none" 
	d="
M89.492653,45.536823 
	C89.481689,45.844669 89.195717,45.912376 88.645370,45.969688 
	C87.417351,46.603905 86.171432,47.161621 86.151199,47.760746 
	C85.977196,52.911339 85.980568,58.070461 86.104187,63.222885 
	C86.112495,63.569283 87.528786,63.881908 88.260406,64.588921 
	C87.484009,65.544342 86.737427,66.121094 85.990852,66.697838 
	C85.821777,66.583206 85.652695,66.468582 85.243874,65.708099 
	C84.986458,58.381413 84.968788,51.700588 84.951126,45.019768 
	C86.468620,45.089504 87.986115,45.159241 89.492653,45.536823 
z"/>
<path fill="#BBBBBB" opacity="1.000000" stroke="none" 
	d="
M125.685410,78.298164 
	C124.300713,77.788322 123.178825,77.511406 121.322495,77.053215 
	C121.322495,76.577805 121.322495,74.691475 121.322495,73.093292 
	C123.093491,73.093292 124.923752,73.093292 127.338371,73.093292 
	C126.910675,74.766273 126.429451,76.648682 125.685410,78.298164 
z"/>
<path fill="#C3F5FC" opacity="1.000000" stroke="none" 
	d="
M84.686256,45.256920 
	C84.968788,51.700588 84.986458,58.381413 84.994324,65.530312 
	C84.251480,64.371941 83.518433,62.745487 82.433960,61.058136 
	C82.416611,58.274323 82.750679,55.551403 83.344315,52.185421 
	C83.741417,50.707661 83.878952,49.872967 84.016479,49.038273 
	C84.151451,47.856873 84.286415,46.675472 84.686256,45.256920 
z"/>
<path fill="#F8F8F7" opacity="1.000000" stroke="none" 
	d="
M165.001831,75.997864 
	C165.753021,74.699280 166.504227,73.400688 167.655609,72.362610 
	C168.677856,73.682747 169.299896,74.742378 169.921936,75.802017 
	C168.838593,78.998138 167.443436,80.502754 165.034607,76.348305 
	C165.000000,76.000000 165.001831,75.997864 165.001831,75.997864 
z"/>
<path fill="#E8FBF2" opacity="1.000000" stroke="none" 
	d="
M117.136902,41.156425 
	C117.997688,39.858379 118.928436,38.844803 119.840103,37.480621 
	C120.442780,37.919331 121.220222,38.633331 121.647621,39.516693 
	C122.204636,40.667957 122.484077,41.953518 122.946808,43.500458 
	C121.346504,43.970478 119.682358,44.121342 117.605118,44.278427 
	C117.196976,43.336731 117.201920,42.388813 117.136902,41.156425 
z"/>
<path fill="#79B368" opacity="1.000000" stroke="none" 
	d="
M183.040375,65.419510 
	C182.733688,59.263840 182.418030,52.649624 182.131683,45.576691 
	C182.160965,45.117966 182.553345,45.006084 182.754044,44.969597 
	C182.980301,51.609066 183.005859,58.285019 183.040375,65.419510 
z"/>
<path fill="#CBECC0" opacity="1.000000" stroke="none" 
	d="
M134.648636,52.888222 
	C134.725616,56.007435 134.802612,59.126644 134.751556,62.701576 
	C134.127960,62.882923 133.632416,62.608559 133.042679,62.054504 
	C132.984909,59.125500 133.021317,56.476173 133.353668,53.386261 
	C133.982635,52.926525 134.315643,52.907372 134.648636,52.888222 
z"/>
<path fill="#A4DFF6" opacity="1.000000" stroke="none" 
	d="
M48.917046,65.281174 
	C49.501919,64.966232 49.865299,64.963707 50.501175,64.954666 
	C54.230076,65.318787 57.686481,65.689430 61.602264,66.089691 
	C62.061646,66.119316 62.095596,66.594505 62.099800,66.833313 
	C56.606976,66.985939 51.109943,66.899750 45.288811,66.556946 
	C46.208328,66.064751 47.451939,65.829170 48.917046,65.281174 
z"/>
<path fill="#E8FBF2" opacity="1.000000" stroke="none" 
	d="
M107.048370,30.339371 
	C109.026085,31.722383 111.029800,33.451511 113.108307,35.508606 
	C111.146858,34.119545 109.110619,32.402515 107.048370,30.339371 
z"/>
<path fill="#65B74D" opacity="1.000000" stroke="none" 
	d="
M173.998398,58.273956 
	C173.664291,59.365059 173.330185,60.456158 172.951843,61.890450 
	C172.013138,61.457947 171.118683,60.682251 170.039978,59.677864 
	C170.130417,58.547287 170.405106,57.645401 171.113602,56.547508 
	C172.364395,56.992317 173.181396,57.633137 173.998398,58.273956 
z"/>
<path fill="#E8FBF2" opacity="1.000000" stroke="none" 
	d="
M134.707123,52.477104 
	C134.315643,52.907372 133.982635,52.926525 133.399384,52.939850 
	C132.504059,51.500851 131.858978,50.067673 131.129364,48.307274 
	C131.960297,47.976452 132.875763,47.972847 134.132446,47.957066 
	C134.570999,49.318588 134.668304,50.692284 134.707123,52.477104 
z"/>
<path fill="#E8FBF2" opacity="1.000000" stroke="none" 
	d="
M91.294083,63.886765 
	C91.124283,62.199467 91.230598,60.405102 91.585373,58.328754 
	C92.816261,59.814770 93.798698,61.582764 94.903595,63.663078 
	C93.874107,63.910168 92.722160,63.844933 91.294083,63.886765 
z"/>
<path fill="#D1EEC8" opacity="1.000000" stroke="none" 
	d="
M163.797394,58.055740 
	C163.651825,56.839344 163.783997,55.528629 163.916168,54.217915 
	C164.869965,54.570866 165.823776,54.923817 166.909775,55.622444 
	C166.053024,56.632549 165.064072,57.296989 163.797394,58.055740 
z"/>
<path fill="#E8FBF2" opacity="1.000000" stroke="none" 
	d="
M86.125679,66.982590 
	C86.737427,66.121094 87.484009,65.544342 88.438309,64.551605 
	C88.646042,64.135605 88.994621,64.035492 88.994621,64.035492 
	C89.203972,64.320671 89.413330,64.605843 89.855698,65.032959 
	C89.978249,68.004898 88.684456,68.669952 86.125679,66.982590 
z"/>
<path fill="#DEFAD4" opacity="1.000000" stroke="none" 
	d="
M193.860352,53.493374 
	C194.281967,53.081665 194.762115,53.049660 195.603119,53.008873 
	C195.990509,54.392204 196.017029,55.784313 195.998383,57.591827 
	C195.398712,57.824791 194.844223,57.642353 194.137726,57.203476 
	C193.963440,55.922386 193.941162,54.897732 193.860352,53.493374 
z"/>
<path fill="#E8FBF2" opacity="1.000000" stroke="none" 
	d="
M98.082703,26.557274 
	C99.818802,26.624454 101.653839,27.045748 103.694153,27.753637 
	C101.993500,27.663952 100.087563,27.287670 98.082703,26.557274 
z"/>
<path fill="#DEFAD4" opacity="1.000000" stroke="none" 
	d="
M188.079315,61.463791 
	C185.476532,60.720028 185.118195,59.277100 187.786377,57.439262 
	C188.102356,58.658653 188.082596,59.877697 188.079315,61.463791 
z"/>
<path fill="#D3F4FA" opacity="1.000000" stroke="none" 
	d="
M44.917992,44.045547 
	C44.000740,44.542587 42.942425,44.756824 41.489395,45.074890 
	C42.322090,44.706730 43.549511,44.234737 44.917992,44.045547 
z"/>
<path fill="#F8F8F7" opacity="1.000000" stroke="none" 
	d="
M164.999084,76.001022 
	C164.018448,75.236465 163.038727,74.470886 162.059021,73.705315 
	C162.500229,73.313942 162.941437,72.922569 163.382660,72.531197 
	C163.904297,73.469994 164.425949,74.408791 164.974701,75.672729 
	C165.001831,75.997864 165.000000,76.000000 164.999084,76.001022 
z"/>
<path fill="#D1EEC8" opacity="1.000000" stroke="none" 
	d="
M159.360962,67.036385 
	C158.987869,67.017662 158.976105,66.553764 158.972015,66.321915 
	C160.195038,65.793663 161.422180,65.497261 163.039490,65.166977 
	C162.197784,65.773750 160.965912,66.414429 159.360962,67.036385 
z"/>
<path fill="#D3F4FA" opacity="1.000000" stroke="none" 
	d="
M47.214859,48.828167 
	C46.644718,47.921280 46.331165,46.821114 46.021912,45.367233 
	C46.507961,46.220642 46.989704,47.427765 47.214859,48.828167 
z"/>
<path fill="#92C184" opacity="1.000000" stroke="none" 
	d="
M174.271774,58.049744 
	C173.181396,57.633137 172.364395,56.992317 171.265228,56.226440 
	C170.983063,56.101383 170.930283,55.606548 170.949356,55.358902 
	C172.044312,55.417633 173.120193,55.724010 174.527130,55.930088 
	C174.753845,56.495033 174.649506,57.160282 174.271774,58.049744 
z"/>
<path fill="#D3F4FA" opacity="1.000000" stroke="none" 
	d="
M39.556702,48.052181 
	C39.470921,49.221684 39.041130,50.466030 38.297569,51.818333 
	C38.393433,50.659866 38.803062,49.393448 39.556702,48.052181 
z"/>
<path fill="#79B368" opacity="1.000000" stroke="none" 
	d="
M193.889603,62.636566 
	C192.253113,62.875683 190.405136,62.767735 188.267624,62.403816 
	C189.878098,62.195068 191.778107,62.242287 193.889603,62.636566 
z"/>
<path fill="#D2F6FD" opacity="1.000000" stroke="none" 
	d="
M83.667046,49.033409 
	C83.878952,49.872967 83.741417,50.707661 83.361443,51.752747 
	C82.719360,51.213177 82.319725,50.463211 81.920364,49.387321 
	C82.386299,49.050453 82.851952,49.039501 83.667046,49.033409 
z"/>
<path fill="#A4DFF6" opacity="1.000000" stroke="none" 
	d="
M50.868530,50.641541 
	C50.773441,51.062046 50.378029,51.034359 50.180496,51.016876 
	C50.074448,49.511963 50.165932,48.024529 50.479294,46.244255 
	C50.788651,47.374619 50.876137,48.797829 50.868530,50.641541 
z"/>
<path fill="#A7A6A6" opacity="1.000000" stroke="none" 
	d="
M169.938477,75.430878 
	C169.299896,74.742378 168.677856,73.682747 167.993744,72.300331 
	C168.606125,73.004944 169.280563,74.032341 169.938477,75.430878 
z"/>
<path fill="#E8FBF2" opacity="1.000000" stroke="none" 
	d="
M119.901123,36.775490 
	C119.221184,36.351788 118.582321,35.553421 117.878754,34.449318 
	C118.523438,34.896000 119.232811,35.648415 119.901123,36.775490 
z"/>
<path fill="#E8FBF2" opacity="1.000000" stroke="none" 
	d="
M98.028107,66.307617 
	C98.561218,66.175507 99.123917,66.333511 99.840469,66.750252 
	C99.348770,66.871902 98.703232,66.734825 98.028107,66.307617 
z"/>
<path fill="#E8FBF2" opacity="1.000000" stroke="none" 
	d="
M116.035728,66.373444 
	C116.556625,66.184898 117.114403,66.290398 117.863113,66.612328 
	C117.393570,66.775009 116.733086,66.721252 116.035728,66.373444 
z"/>
<path fill="#E8FBF2" opacity="1.000000" stroke="none" 
	d="
M125.084541,67.068130 
	C125.436752,66.555832 125.934204,66.295280 126.719620,66.084122 
	C126.414986,66.528976 125.822380,66.924431 125.084541,67.068130 
z"/>
<path fill="#EFFBE9" opacity="1.000000" stroke="none" 
	d="
M193.389633,45.170517 
	C192.919937,45.307125 192.656876,45.170864 192.190781,44.940643 
	C192.315079,44.379963 192.645584,43.907070 192.976105,43.434181 
	C193.181763,43.924061 193.387421,44.413940 193.389633,45.170517 
z"/>
<path fill="#A4DFF6" opacity="1.000000" stroke="none" 
	d="
M62.976532,45.728424 
	C62.670689,45.744232 62.392513,45.424122 62.107525,44.776970 
	C62.179745,44.194874 62.352673,44.061581 62.793491,44.048233 
	C62.979733,44.495113 62.991966,44.943810 62.976532,45.728424 
z"/>
<path fill="#CBECC0" opacity="1.000000" stroke="none" 
	d="
M136.115540,66.615967 
	C136.415131,66.366318 136.892929,66.283401 137.716644,66.330673 
	C137.472977,66.568138 136.883362,66.675423 136.115540,66.615967 
z"/>
<path fill="#DFF9D3" opacity="1.000000" stroke="none" 
	d="
M154.122253,66.658234 
	C154.173538,66.484093 154.334366,66.411705 154.747360,66.419510 
	C154.999542,66.499710 154.664261,66.777458 154.664261,66.777458 
	C154.664261,66.777458 154.231766,66.759995 154.122253,66.658234 
z"/>
<path fill="#E8FBF2" opacity="1.000000" stroke="none" 
	d="
M104.107292,28.294044 
	C104.281891,28.220716 104.578033,28.356936 104.965919,28.732929 
	C104.722870,28.919689 104.446602,28.763319 104.107292,28.294044 
z"/>
<path fill="#79B368" opacity="1.000000" stroke="none" 
	d="
M193.331497,66.087990 
	C193.228806,65.800819 193.446152,65.501205 193.931412,65.105957 
	C194.016724,65.365395 193.834137,65.720467 193.331497,66.087990 
z"/>
<path fill="#E8FBF2" opacity="1.000000" stroke="none" 
	d="
M95.129501,64.209503 
	C95.318962,64.136772 95.618050,64.302704 96.027039,64.706909 
	C95.837669,64.779518 95.538399,64.613846 95.129501,64.209503 
z"/>
<path fill="#E8FBF2" opacity="1.000000" stroke="none" 
	d="
M113.093369,64.317947 
	C113.326553,64.121162 113.607491,64.265747 113.922577,64.764679 
	C113.695175,64.935890 113.423302,64.782654 113.093369,64.317947 
z"/>
<path fill="#DCF7D0" opacity="1.000000" stroke="none" 
	d="
M173.082428,64.213562 
	C173.280991,64.160980 173.553970,64.346146 173.886047,64.777939 
	C173.602097,64.943871 173.339325,64.752792 173.082428,64.213562 
z"/>
<path fill="#E8FBF2" opacity="1.000000" stroke="none" 
	d="
M114.070564,37.192982 
	C114.343254,37.041649 114.575500,37.218281 114.720818,37.743576 
	C114.453354,37.855843 114.252098,37.665413 114.070564,37.192982 
z"/>
<path fill="#E8FBF2" opacity="1.000000" stroke="none" 
	d="
M116.874115,32.827557 
	C116.677895,32.880623 116.401115,32.695724 116.060806,32.261238 
	C116.262703,32.204296 116.528122,32.396942 116.874115,32.827557 
z"/>
<path fill="#E8FBF2" opacity="1.000000" stroke="none" 
	d="
M116.969620,44.203186 
	C117.122017,44.572056 116.889206,44.784332 116.265289,44.832863 
	C116.160439,44.511871 116.397179,44.304367 116.969620,44.203186 
z"/>
<path fill="#E8FBF2" opacity="1.000000" stroke="none" 
	d="
M114.894264,30.751343 
	C114.709999,30.813526 114.426605,30.654036 114.068420,30.254377 
	C114.328339,30.081022 114.595512,30.252842 114.894264,30.751343 
z"/>
<path fill="#E8FBF2" opacity="1.000000" stroke="none" 
	d="
M126.798088,44.648521 
	C126.616386,44.789211 126.251503,44.710403 125.700615,44.412148 
	C125.881378,44.271481 126.248138,44.350254 126.798088,44.648521 
z"/>
<path fill="#A4CD97" opacity="1.000000" stroke="none" 
	d="
M159.023499,44.504013 
	C159.186478,44.659798 158.861923,45.022179 158.634125,45.105927 
	C158.557724,44.909191 158.709122,44.628712 159.023499,44.504013 
z"/>
<path fill="#79B368" opacity="1.000000" stroke="none" 
	d="
M183.737885,44.120335 
	C183.865692,44.432220 183.658081,44.660046 183.156860,44.894627 
	C183.113403,44.677197 183.293152,44.388828 183.737885,44.120335 
z"/>
<path fill="#E8FBF2" opacity="1.000000" stroke="none" 
	d="
M113.883438,29.777491 
	C113.693291,29.848076 113.400780,29.689228 113.022240,29.287788 
	C113.217834,29.212818 113.499443,29.380438 113.883438,29.777491 
z"/>
<path fill="#A4DFF6" opacity="1.000000" stroke="none" 
	d="
M51.874527,44.339813 
	C51.876156,44.566429 51.716068,44.680946 51.269562,44.866371 
	C51.226364,44.700760 51.469585,44.464241 51.874527,44.339813 
z"/>
<path fill="#E8FBF2" opacity="1.000000" stroke="none" 
	d="
M106.134338,29.418522 
	C106.375977,29.092802 106.655128,29.186581 106.929077,29.749477 
	C106.708504,29.941010 106.457832,29.814152 106.134338,29.418522 
z"/>
<path fill="#E8FBF2" opacity="1.000000" stroke="none" 
	d="
M114.956299,45.134785 
	C114.979118,45.339367 114.743652,45.590561 114.246613,45.881340 
	C114.222687,45.674416 114.460350,45.427910 114.956299,45.134785 
z"/>
<path fill="#E8FBF2" opacity="1.000000" stroke="none" 
	d="
M128.850067,45.777325 
	C128.656448,45.877861 128.324951,45.735207 127.847633,45.357990 
	C128.038605,45.260334 128.375397,45.397236 128.850067,45.777325 
z"/>
<path fill="#E8FBF2" opacity="1.000000" stroke="none" 
	d="
M112.851929,28.821159 
	C112.644997,28.912514 112.333138,28.760664 111.924347,28.360275 
	C112.133949,28.267145 112.440475,28.422550 112.851929,28.821159 
z"/>
<path fill="#E8FBF2" opacity="1.000000" stroke="none" 
	d="
M113.181320,36.083244 
	C113.399498,36.037872 113.665169,36.248718 113.972382,36.721264 
	C113.752213,36.768463 113.490524,36.553963 113.181320,36.083244 
z"/>
<path fill="#92C184" opacity="1.000000" stroke="none" 
	d="
M175.580994,44.824921 
	C175.710892,45.078110 175.545990,45.394184 175.136932,45.835320 
	C175.023926,45.602856 175.155060,45.245327 175.580994,44.824921 
z"/>
<path fill="#92C184" opacity="1.000000" stroke="none" 
	d="
M179.742889,44.940228 
	C179.935883,45.205498 179.897522,45.389748 179.745056,45.832790 
	C179.374008,45.908195 179.192566,45.667786 179.055557,45.142830 
	C179.024460,44.915302 179.511520,44.859207 179.742889,44.940228 
z"/>
<path fill="#E8FBF2" opacity="1.000000" stroke="none" 
	d="
M116.122528,40.208549 
	C116.313881,40.133377 116.610336,40.295162 117.011734,40.692524 
	C116.820328,40.767239 116.523979,40.606377 116.122528,40.208549 
z"/>
<path fill="#E8FBF2" opacity="1.000000" stroke="none" 
	d="
M115.155205,39.037483 
	C115.367104,38.999374 115.634811,39.227654 115.965141,39.719666 
	C115.755516,39.756889 115.483261,39.530380 115.155205,39.037483 
z"/>
<path fill="#D3F4FA" opacity="1.000000" stroke="none" 
	d="
M40.601524,46.150795 
	C40.737236,46.327271 40.666767,46.663364 40.376133,47.148491 
	C40.235760,46.968487 40.315548,46.639446 40.601524,46.150795 
z"/>
<path fill="#D2F6FD" opacity="1.000000" stroke="none" 
	d="
M79.913193,46.721474 
	C79.722755,46.809711 79.419052,46.671631 79.015625,46.295753 
	C79.210579,46.203690 79.505249,46.349426 79.913193,46.721474 
z"/>
<path fill="#E8FBF2" opacity="1.000000" stroke="none" 
	d="
M117.822693,33.918118 
	C117.605850,33.972576 117.330833,33.767487 116.994934,33.302845 
	C117.210884,33.248386 117.487701,33.453480 117.822693,33.918118 
z"/>
<path fill="#D2F6FD" opacity="1.000000" stroke="none" 
	d="
M80.946198,47.706009 
	C80.680397,47.900612 80.406609,47.735672 80.133881,47.204205 
	C80.396034,47.024296 80.663788,47.193893 80.946198,47.706009 
z"/>
<path fill="#E8FBF2" opacity="1.000000" stroke="none" 
	d="
M130.923172,47.732445 
	C130.681396,47.888947 130.422241,47.718735 130.167709,47.206520 
	C130.404678,47.073956 130.649155,47.254356 130.923172,47.732445 
z"/>
<path fill="#D2F6FD" opacity="1.000000" stroke="none" 
	d="
M81.887260,48.833061 
	C81.680489,48.875805 81.421600,48.671185 81.113419,48.217442 
	C81.321144,48.174114 81.578148,48.379910 81.887260,48.833061 
z"/>
<path fill="#E8FBF2" opacity="1.000000" stroke="none" 
	d="
M115.897720,31.777206 
	C115.712128,31.831734 115.435745,31.661266 115.093163,31.248688 
	C115.357491,31.087639 115.617477,31.269520 115.897720,31.777206 
z"/>
<path fill="#A4DFF6" opacity="1.000000" stroke="none" 
	d="
M48.042179,58.347076 
	C48.371796,58.860260 48.652306,59.717590 48.860737,60.929695 
	C48.523464,60.420055 48.258266,59.555637 48.042179,58.347076 
z"/>
<path fill="#F7FEF4" opacity="1.000000" stroke="none" 
	d="
M117.968552,49.664742 
	C121.736771,48.413818 125.010559,48.381275 127.012680,51.906975 
	C128.857834,55.156246 128.579605,58.487736 125.432999,60.753418 
	C122.424759,62.919456 118.935448,62.908833 116.496986,59.902699 
	C113.701202,56.456055 114.093445,52.874241 117.968552,49.664742 
z"/>
<path fill="#E9FDFE" opacity="1.000000" stroke="none" 
	d="
M74.262253,49.296440 
	C78.155365,51.374416 79.177475,54.723797 77.630249,57.868332 
	C76.573853,60.015343 73.641312,61.239231 71.547592,62.875843 
	C71.130058,62.506245 70.712517,62.136650 70.294983,61.767052 
	C70.294983,57.744492 70.294983,53.721931 70.294983,49.149422 
	C71.428238,49.149422 72.649178,49.149422 74.262253,49.296440 
z"/>
<path fill="#92C184" opacity="1.000000" stroke="none" 
	d="
M179.380905,64.892029 
	C179.305130,65.234726 178.980148,65.662552 178.345551,66.074875 
	C178.401169,65.698647 178.766434,65.337906 179.380905,64.892029 
z"/>
<path fill="#0199D9" opacity="1.000000" stroke="none" 
	d="
M88.993805,63.564411 
	C88.994621,64.035492 88.646042,64.135605 88.468132,64.172928 
	C87.528786,63.881908 86.112495,63.569283 86.104187,63.222885 
	C85.980568,58.070461 85.977196,52.911339 86.151199,47.760746 
	C86.171432,47.161621 87.417351,46.603905 88.507622,46.020844 
	C88.944473,51.707569 88.968727,57.400452 88.993805,63.564411 
z"/>
</svg>