<?xml version="1.0" standalone="no"?>
<!DOCTYPE svg PUBLIC "-//W3C//DTD SVG 20010904//EN"
 "http://www.w3.org/TR/2001/REC-SVG-20010904/DTD/svg10.dtd">
<svg version="1.0" xmlns="http://www.w3.org/2000/svg"
 width="225.000000pt" height="225.000000pt" viewBox="0 0 225.000000 225.000000"
 preserveAspectRatio="xMidYMid meet">

<g transform="translate(0.000000,225.000000) scale(0.100000,-0.100000)"
fill="#000000" stroke="none">
<path d="M205 1941 c-137 -63 -153 -239 -32 -335 l39 -31 886 -3 c488 -1 902
0 920 3 18 3 49 20 69 38 112 98 90 267 -42 328 -38 18 -86 19 -920 19 -834 0
-882 -1 -920 -19z m1808 -45 c43 -17 85 -68 93 -111 9 -49 -29 -122 -76 -147
-33 -17 -83 -18 -905 -18 -828 0 -872 1 -905 19 -38 20 -80 82 -80 120 0 48
38 108 83 130 42 21 51 21 900 21 702 0 864 -2 890 -14z"/>
<path d="M205 1301 c-151 -70 -153 -275 -3 -352 37 -19 65 -19 761 -17 l723 3
42 28 c114 75 114 249 0 324 l-42 28 -720 2 c-684 3 -723 2 -761 -16z m1475
-49 c106 -53 106 -201 0 -254 -32 -17 -88 -18 -725 -18 -662 0 -692 1 -733 20
-33 15 -47 29 -62 62 -24 54 -24 72 0 126 15 33 29 47 62 62 41 19 71 20 733
20 637 0 693 -1 725 -18z"/>
<path d="M205 664 c-155 -80 -151 -293 7 -359 56 -23 1080 -23 1136 0 135 57
163 225 55 327 -15 15 -41 32 -56 37 -19 7 -211 11 -570 11 -472 0 -546 -2
-572 -16z m1139 -57 c93 -53 100 -177 12 -240 -31 -22 -31 -22 -559 -25 -508
-3 -529 -2 -573 17 -35 16 -49 29 -64 63 -24 54 -24 72 -1 125 13 28 32 48 58
62 37 19 56 20 563 20 l525 1 39 -23z"/>
</g>
</svg>
